<svg width="332" height="469" viewBox="0 0 332 469" fill="none" xmlns="http://www.w3.org/2000/svg">
<g filter="url(#filter0_dd_1_1548)">
<circle cx="184.63" cy="412.226" r="24.7741" fill="url(#paint0_linear_1_1548)" shape-rendering="crispEdges"/>
</g>
<g filter="url(#filter1_dd_1_1548)">
<circle cx="260.182" cy="333.156" r="18.3281" fill="url(#paint1_linear_1_1548)" shape-rendering="crispEdges"/>
</g>
<circle cx="146" cy="186" r="186" fill="url(#paint2_radial_1_1548)" fill-opacity="0.6"/>
<g filter="url(#filter2_d_1_1548)">
<ellipse cx="184.259" cy="227.724" rx="111.442" ry="69.8154" fill="url(#paint3_linear_1_1548)" fill-opacity="0.5" shape-rendering="crispEdges"/>
<path d="M184.26 158.38C214.959 158.38 242.73 166.176 262.811 178.757C282.899 191.341 295.23 208.666 295.23 227.724C295.23 246.783 282.899 264.108 262.811 276.692C242.73 289.272 214.959 297.069 184.26 297.069C153.56 297.069 125.789 289.272 105.708 276.692C85.6203 264.108 73.2879 246.783 73.2879 227.724C73.2879 208.666 85.6203 191.341 105.708 178.757C125.789 166.176 153.56 158.38 184.26 158.38Z" stroke="url(#paint4_linear_1_1548)" stroke-opacity="0.6" stroke-width="0.941174" shape-rendering="crispEdges"/>
</g>
<circle cx="184.258" cy="162.625" r="141.382" fill="url(#paint5_radial_1_1548)"/>
<ellipse cx="184.257" cy="186" rx="138.225" ry="80.864" fill="url(#paint6_linear_1_1548)" fill-opacity="0.5"/>
<path d="M184.257 105.607C222.358 105.607 256.829 114.643 281.759 129.227C306.7 143.818 322.011 163.907 322.011 186.001C322.011 208.094 306.7 228.183 281.759 242.774C256.829 257.358 222.358 266.394 184.257 266.394C146.156 266.394 111.685 257.358 86.7552 242.774C61.8143 228.183 46.5034 208.094 46.5033 186.001C46.5033 163.907 61.8142 143.818 86.7552 129.227C111.685 114.643 146.156 105.607 184.257 105.607Z" stroke="url(#paint7_linear_1_1548)" stroke-opacity="0.6" stroke-width="0.941174"/>
<circle cx="184.257" cy="162.624" r="104.724" fill="url(#paint8_radial_1_1548)"/>
<circle cx="184.257" cy="162.624" r="104.724" fill="url(#paint9_radial_1_1548)"/>
<g filter="url(#filter3_d_1_1548)">
<ellipse cx="184.258" cy="135.797" rx="136.819" ry="78.994" fill="url(#paint10_linear_1_1548)" fill-opacity="0.5" shape-rendering="crispEdges"/>
<path d="M184.258 57.2733C221.972 57.2733 256.093 66.0997 280.768 80.3466C305.456 94.6006 320.606 114.222 320.606 135.797C320.606 157.371 305.456 176.992 280.768 191.246C256.093 205.493 221.972 214.32 184.258 214.32C146.544 214.32 112.424 205.493 87.7479 191.246C63.0598 176.992 47.91 157.371 47.91 135.797C47.91 114.222 63.0597 94.6006 87.7479 80.3466C112.424 66.0998 146.544 57.2734 184.258 57.2733Z" stroke="url(#paint11_linear_1_1548)" stroke-opacity="0.6" stroke-width="0.941174" shape-rendering="crispEdges"/>
</g>
<g filter="url(#filter4_d_1_1548)">
<ellipse cx="184.257" cy="95.0054" rx="106.167" ry="68.6237" fill="url(#paint12_linear_1_1548)" fill-opacity="0.5" shape-rendering="crispEdges"/>
<path d="M184.257 26.8524C213.497 26.8524 239.948 34.5145 259.073 46.8768C278.204 59.2423 289.954 76.269 289.954 95.0057C289.954 113.742 278.204 130.769 259.073 143.135C239.948 155.497 213.497 163.159 184.257 163.159C155.017 163.159 128.567 155.497 109.441 143.135C90.3111 130.769 78.5607 113.742 78.5606 95.0057C78.5606 76.269 90.311 59.2423 109.441 46.8768C128.567 34.5145 155.017 26.8525 184.257 26.8524Z" stroke="url(#paint13_linear_1_1548)" stroke-opacity="0.6" stroke-width="0.941174" shape-rendering="crispEdges"/>
</g>
<ellipse cx="184.259" cy="71.1703" rx="66.0812" ry="44.7886" fill="url(#paint14_linear_1_1548)" fill-opacity="0.5"/>
<path d="M184.259 26.8524C202.426 26.8524 218.852 31.8439 230.722 39.8895C242.595 47.937 249.87 59.0055 249.87 71.1708C249.869 83.3359 242.595 94.4037 230.722 102.451C218.852 110.497 202.426 115.488 184.259 115.488C166.093 115.488 149.668 110.497 137.797 102.451C125.924 94.4037 118.649 83.3359 118.649 71.1708C118.649 59.0054 125.924 47.937 137.797 39.8895C149.668 31.844 166.093 26.8524 184.259 26.8524Z" stroke="url(#paint15_linear_1_1548)" stroke-opacity="0.6" stroke-width="0.941174"/>
<ellipse cx="184.258" cy="55.8806" rx="38.2578" ry="26.3238" fill="url(#paint16_linear_1_1548)" fill-opacity="0.5"/>
<path d="M184.258 30.0275C194.739 30.0275 204.208 32.9514 211.043 37.6544C217.881 42.359 222.045 48.8113 222.045 55.881C222.045 62.9505 217.88 69.4021 211.043 74.1066C204.208 78.8096 194.74 81.7335 184.258 81.7335C173.777 81.7335 164.308 78.8096 157.473 74.1066C150.636 69.4021 146.471 62.9505 146.471 55.881C146.471 48.8113 150.636 42.359 157.473 37.6544C164.308 32.9514 173.777 30.0275 184.258 30.0275Z" stroke="url(#paint17_linear_1_1548)" stroke-opacity="0.6" stroke-width="0.941174"/>
<circle cx="184.258" cy="162.624" r="141.382" fill="url(#paint18_radial_1_1548)" fill-opacity="0.3"/>
<defs>
<filter id="filter0_dd_1_1548" x="126.915" y="352.628" width="115.43" height="115.43" filterUnits="userSpaceOnUse" color-interpolation-filters="sRGB">
<feFlood flood-opacity="0" result="BackgroundImageFix"/>
<feColorMatrix in="SourceAlpha" type="matrix" values="0 0 0 0 0 0 0 0 0 0 0 0 0 0 0 0 0 0 127 0" result="hardAlpha"/>
<feOffset dy="-1.88235"/>
<feGaussianBlur stdDeviation="16.4705"/>
<feComposite in2="hardAlpha" operator="out"/>
<feColorMatrix type="matrix" values="0 0 0 0 0.371081 0 0 0 0 0.235903 0 0 0 0 0.658333 0 0 0 1 0"/>
<feBlend mode="normal" in2="BackgroundImageFix" result="effect1_dropShadow_1_1548"/>
<feColorMatrix in="SourceAlpha" type="matrix" values="0 0 0 0 0 0 0 0 0 0 0 0 0 0 0 0 0 0 127 0" result="hardAlpha"/>
<feOffset dy="-1.88235"/>
<feGaussianBlur stdDeviation="9.41174"/>
<feComposite in2="hardAlpha" operator="out"/>
<feColorMatrix type="matrix" values="0 0 0 0 0.48825 0 0 0 0 0.372778 0 0 0 0 0.733333 0 0 0 1 0"/>
<feBlend mode="normal" in2="effect1_dropShadow_1_1548" result="effect2_dropShadow_1_1548"/>
<feBlend mode="normal" in="SourceGraphic" in2="effect2_dropShadow_1_1548" result="shape"/>
</filter>
<filter id="filter1_dd_1_1548" x="208.913" y="280.004" width="102.538" height="102.538" filterUnits="userSpaceOnUse" color-interpolation-filters="sRGB">
<feFlood flood-opacity="0" result="BackgroundImageFix"/>
<feColorMatrix in="SourceAlpha" type="matrix" values="0 0 0 0 0 0 0 0 0 0 0 0 0 0 0 0 0 0 127 0" result="hardAlpha"/>
<feOffset dy="-1.88235"/>
<feGaussianBlur stdDeviation="16.4705"/>
<feComposite in2="hardAlpha" operator="out"/>
<feColorMatrix type="matrix" values="0 0 0 0 0.371081 0 0 0 0 0.235903 0 0 0 0 0.658333 0 0 0 1 0"/>
<feBlend mode="normal" in2="BackgroundImageFix" result="effect1_dropShadow_1_1548"/>
<feColorMatrix in="SourceAlpha" type="matrix" values="0 0 0 0 0 0 0 0 0 0 0 0 0 0 0 0 0 0 127 0" result="hardAlpha"/>
<feOffset dy="-1.88235"/>
<feGaussianBlur stdDeviation="9.41174"/>
<feComposite in2="hardAlpha" operator="out"/>
<feColorMatrix type="matrix" values="0 0 0 0 0.48825 0 0 0 0 0.372778 0 0 0 0 0.733333 0 0 0 1 0"/>
<feBlend mode="normal" in2="effect1_dropShadow_1_1548" result="effect2_dropShadow_1_1548"/>
<feBlend mode="normal" in="SourceGraphic" in2="effect2_dropShadow_1_1548" result="shape"/>
</filter>
<filter id="filter2_d_1_1548" x="63.4055" y="149.438" width="241.708" height="158.454" filterUnits="userSpaceOnUse" color-interpolation-filters="sRGB">
<feFlood flood-opacity="0" result="BackgroundImageFix"/>
<feColorMatrix in="SourceAlpha" type="matrix" values="0 0 0 0 0 0 0 0 0 0 0 0 0 0 0 0 0 0 127 0" result="hardAlpha"/>
<feOffset dy="0.941174"/>
<feGaussianBlur stdDeviation="4.70587"/>
<feComposite in2="hardAlpha" operator="out"/>
<feColorMatrix type="matrix" values="0 0 0 0 0.440043 0 0 0 0 0.20092 0 0 0 0 0.679167 0 0 0 0.3 0"/>
<feBlend mode="normal" in2="BackgroundImageFix" result="effect1_dropShadow_1_1548"/>
<feBlend mode="normal" in="SourceGraphic" in2="effect1_dropShadow_1_1548" result="shape"/>
</filter>
<filter id="filter3_d_1_1548" x="42.7334" y="53.0379" width="283.049" height="167.4" filterUnits="userSpaceOnUse" color-interpolation-filters="sRGB">
<feFlood flood-opacity="0" result="BackgroundImageFix"/>
<feColorMatrix in="SourceAlpha" type="matrix" values="0 0 0 0 0 0 0 0 0 0 0 0 0 0 0 0 0 0 127 0" result="hardAlpha"/>
<feOffset dy="0.941174"/>
<feGaussianBlur stdDeviation="2.35293"/>
<feComposite in2="hardAlpha" operator="out"/>
<feColorMatrix type="matrix" values="0 0 0 0 0.369333 0 0 0 0 0.0916667 0 0 0 0 0.5 0 0 0 0.15 0"/>
<feBlend mode="normal" in2="BackgroundImageFix" result="effect1_dropShadow_1_1548"/>
<feBlend mode="normal" in="SourceGraphic" in2="effect1_dropShadow_1_1548" result="shape"/>
</filter>
<filter id="filter4_d_1_1548" x="71.9723" y="20.2641" width="226.452" height="151.365" filterUnits="userSpaceOnUse" color-interpolation-filters="sRGB">
<feFlood flood-opacity="0" result="BackgroundImageFix"/>
<feColorMatrix in="SourceAlpha" type="matrix" values="0 0 0 0 0 0 0 0 0 0 0 0 0 0 0 0 0 0 127 0" result="hardAlpha"/>
<feOffset dx="0.941174" dy="0.941174"/>
<feGaussianBlur stdDeviation="3.5294"/>
<feComposite in2="hardAlpha" operator="out"/>
<feColorMatrix type="matrix" values="0 0 0 0 0.440043 0 0 0 0 0.20092 0 0 0 0 0.679167 0 0 0 0.2 0"/>
<feBlend mode="normal" in2="BackgroundImageFix" result="effect1_dropShadow_1_1548"/>
<feBlend mode="normal" in="SourceGraphic" in2="effect1_dropShadow_1_1548" result="shape"/>
</filter>
<linearGradient id="paint0_linear_1_1548" x1="184.63" y1="376.68" x2="184.63" y2="463.569" gradientUnits="userSpaceOnUse">
<stop stop-color="white"/>
<stop offset="0.223958" stop-color="#6BE4FF"/>
<stop offset="0.623188" stop-color="#371B73" stop-opacity="0.6"/>
<stop offset="1" stop-color="#0A1153" stop-opacity="0.4"/>
</linearGradient>
<linearGradient id="paint1_linear_1_1548" x1="260.182" y1="306.859" x2="260.182" y2="371.14" gradientUnits="userSpaceOnUse">
<stop stop-color="white"/>
<stop offset="0.223958" stop-color="#6BE4FF"/>
<stop offset="0.623188" stop-color="#371B73" stop-opacity="0.6"/>
<stop offset="1" stop-color="#0A1153" stop-opacity="0.4"/>
</linearGradient>
<radialGradient id="paint2_radial_1_1548" cx="0" cy="0" r="1" gradientUnits="userSpaceOnUse" gradientTransform="translate(146 186) rotate(90) scale(186)">
<stop stop-color="#FF65C1"/>
<stop offset="1" stop-color="#FF65C1" stop-opacity="0"/>
</radialGradient>
<linearGradient id="paint3_linear_1_1548" x1="184.259" y1="157.909" x2="184.259" y2="297.54" gradientUnits="userSpaceOnUse">
<stop stop-color="#13154D"/>
<stop offset="1" stop-color="#8E92EE" stop-opacity="0"/>
</linearGradient>
<linearGradient id="paint4_linear_1_1548" x1="239.608" y1="236.526" x2="245.916" y2="306.959" gradientUnits="userSpaceOnUse">
<stop stop-color="white" stop-opacity="0"/>
<stop offset="1" stop-color="white"/>
</linearGradient>
<radialGradient id="paint5_radial_1_1548" cx="0" cy="0" r="1" gradientUnits="userSpaceOnUse" gradientTransform="translate(42.8759 214.056) rotate(-19.6638) scale(300.275)">
<stop offset="0.249306" stop-color="white"/>
<stop offset="0.48315" stop-color="#FF8FED" stop-opacity="0.5"/>
<stop offset="0.627037" stop-color="#220C7A" stop-opacity="0.5"/>
</radialGradient>
<linearGradient id="paint6_linear_1_1548" x1="57.3125" y1="203.186" x2="319.299" y2="173.616" gradientUnits="userSpaceOnUse">
<stop stop-color="white"/>
<stop offset="1" stop-color="#12178E" stop-opacity="0.4"/>
</linearGradient>
<linearGradient id="paint7_linear_1_1548" x1="206.204" y1="301.135" x2="164.382" y2="201.358" gradientUnits="userSpaceOnUse">
<stop offset="0.0011346" stop-color="white"/>
<stop offset="1" stop-color="white" stop-opacity="0"/>
</linearGradient>
<radialGradient id="paint8_radial_1_1548" cx="0" cy="0" r="1" gradientUnits="userSpaceOnUse" gradientTransform="translate(105.049 215.803) rotate(-14.8494) scale(207.504)">
<stop offset="0.239373" stop-color="white"/>
<stop offset="0.410099" stop-color="#FFCEF1"/>
<stop offset="0.67492" stop-color="#B6B9FF"/>
<stop offset="0.861176" stop-color="#FFA8E7"/>
<stop offset="1" stop-color="white"/>
</radialGradient>
<radialGradient id="paint9_radial_1_1548" cx="0" cy="0" r="1" gradientUnits="userSpaceOnUse" gradientTransform="translate(283.472 243.571) rotate(-121.724) scale(119.316)">
<stop stop-color="#3F52FF"/>
<stop offset="1" stop-color="#3F52FF" stop-opacity="0"/>
</radialGradient>
<linearGradient id="paint10_linear_1_1548" x1="50.3855" y1="130.352" x2="321.076" y2="138.762" gradientUnits="userSpaceOnUse">
<stop stop-color="white"/>
<stop offset="1" stop-color="#5653FF" stop-opacity="0.2"/>
</linearGradient>
<linearGradient id="paint11_linear_1_1548" x1="166.241" y1="270.563" x2="157.734" y2="141.709" gradientUnits="userSpaceOnUse">
<stop stop-color="white"/>
<stop offset="1" stop-color="white" stop-opacity="0"/>
</linearGradient>
<linearGradient id="paint12_linear_1_1548" x1="184.257" y1="26.3817" x2="184.257" y2="163.629" gradientUnits="userSpaceOnUse">
<stop stop-color="#13154D" stop-opacity="0.5"/>
<stop offset="1" stop-color="#8E92EE" stop-opacity="0"/>
</linearGradient>
<linearGradient id="paint13_linear_1_1548" x1="202.813" y1="193.426" x2="216.895" y2="41.6597" gradientUnits="userSpaceOnUse">
<stop stop-color="white"/>
<stop offset="1" stop-color="white" stop-opacity="0"/>
</linearGradient>
<linearGradient id="paint14_linear_1_1548" x1="184.259" y1="26.3817" x2="184.259" y2="115.959" gradientUnits="userSpaceOnUse">
<stop stop-color="#13154D"/>
<stop offset="1" stop-color="#8E92EE" stop-opacity="0"/>
</linearGradient>
<linearGradient id="paint15_linear_1_1548" x1="210.699" y1="181.863" x2="184.259" y2="26.3817" gradientUnits="userSpaceOnUse">
<stop stop-color="white"/>
<stop offset="1" stop-color="white" stop-opacity="0"/>
</linearGradient>
<linearGradient id="paint16_linear_1_1548" x1="184.258" y1="29.5568" x2="184.258" y2="82.2044" gradientUnits="userSpaceOnUse">
<stop stop-color="#13154D"/>
<stop offset="1" stop-color="#8E92EE" stop-opacity="0"/>
</linearGradient>
<linearGradient id="paint17_linear_1_1548" x1="204.916" y1="137.711" x2="184.258" y2="29.5568" gradientUnits="userSpaceOnUse">
<stop stop-color="white"/>
<stop offset="1" stop-color="white" stop-opacity="0"/>
</linearGradient>
<radialGradient id="paint18_radial_1_1548" cx="0" cy="0" r="1" gradientUnits="userSpaceOnUse" gradientTransform="translate(42.8759 214.055) rotate(-19.6638) scale(300.275)">
<stop offset="0.249306" stop-color="white"/>
<stop offset="0.48315" stop-color="#FF8FED" stop-opacity="0.5"/>
<stop offset="0.627037" stop-color="#220C7A" stop-opacity="0"/>
</radialGradient>
</defs>
</svg>
