<svg width="82" height="82" viewBox="0 0 82 82" fill="none" xmlns="http://www.w3.org/2000/svg">
<path d="M16.8405 65.1595C21.6188 69.9378 27.7068 73.1919 34.3344 74.5102C40.9621 75.8285 47.8319 75.1519 54.075 72.5659C60.3182 69.9799 65.6543 65.6007 69.4086 59.982C73.1628 54.3633 75.1667 47.7576 75.1667 41C75.1667 34.2425 73.1628 27.6367 69.4086 22.0181C65.6543 16.3994 60.3182 12.0202 54.075 9.43416C47.8319 6.84816 40.9621 6.17155 34.3344 7.48988C27.7068 8.8082 21.6188 12.0623 16.8405 16.8406" stroke="white" stroke-width="2"/>
<path d="M10.25 41L9.46913 40.3753L8.96938 41L9.46913 41.6247L10.25 41ZM51.25 42C51.8023 42 52.25 41.5522 52.25 41C52.25 40.4477 51.8023 40 51.25 40V42ZM23.9167 23.9166L23.1358 23.2919L9.46913 40.3753L10.25 41L11.0309 41.6247L24.6975 24.5413L23.9167 23.9166ZM10.25 41L9.46913 41.6247L23.1358 58.708L23.9167 58.0833L24.6975 57.4586L11.0309 40.3753L10.25 41ZM10.25 41V42H51.25V41V40H10.25V41Z" fill="white"/>
</svg>
