<svg width="93" height="93" viewBox="0 0 93 93" fill="none" xmlns="http://www.w3.org/2000/svg">
<mask id="mask0_472_31" style="mask-type:alpha" maskUnits="userSpaceOnUse" x="11" y="11" width="71" height="71">
<path d="M11.625 23.625C11.625 17.9681 11.625 15.1397 13.3824 13.3824C15.1397 11.625 17.9681 11.625 23.625 11.625H69.375C75.0319 11.625 77.8603 11.625 79.6176 13.3824C81.375 15.1397 81.375 17.9681 81.375 23.625V73.375C81.375 77.1462 81.375 79.0319 80.2034 80.2034C79.0319 81.375 77.1462 81.375 73.375 81.375H19.625C15.8538 81.375 13.9681 81.375 12.7966 80.2034C11.625 79.0319 11.625 77.1462 11.625 73.375V23.625Z" fill="black"/>
</mask>
<g mask="url(#mask0_472_31)">
<path d="M73.3871 -3.43122C77.1525 -3.64041 79.0361 -3.74499 80.2709 -2.64021C81.5054 -1.5354 81.6095 0.347558 81.8187 4.11272L85.0541 62.351C85.1604 64.2647 83.6377 65.8753 81.7211 65.8754C81.4997 65.8754 81.2868 65.7868 81.1302 65.6303L68.7035 53.2035C67.3703 51.8703 66.7037 51.2036 65.8754 51.2035C65.047 51.2035 64.3804 51.8703 63.0472 53.2035L55.7269 60.5229C55.0335 61.2163 54.6869 61.5633 54.2601 61.5541C53.8332 61.5449 53.5011 61.1835 52.8382 60.4604L35.7611 41.8295C34.444 40.3927 33.7849 39.6745 32.975 39.6274C32.1651 39.5803 31.397 40.2432 29.8617 41.5698C25.8796 45.0104 18.8274 50.3753 13.5629 50.3754C13.5629 44.7331 12.5355 20.6049 11.9769 7.89885C11.8131 4.17205 11.7316 2.30858 12.8343 1.09026C13.9371 -0.12803 15.8022 -0.231794 19.5326 -0.439037L73.3871 -3.43122ZM63.9379 23.2504C60.7277 23.2504 58.1254 25.8528 58.1254 29.0629C58.1256 32.2729 60.7278 34.8754 63.9379 34.8754C67.1478 34.8753 69.7502 32.2728 69.7504 29.0629C69.7504 25.8528 67.1479 23.2505 63.9379 23.2504Z" fill="white"/>
</g>
<path d="M48.4375 79.4375H75.4375C77.6466 79.4375 79.4375 77.6466 79.4375 75.4375V17.5625C79.4375 15.3534 77.6466 13.5625 75.4375 13.5625H17.5625C15.3534 13.5625 13.5625 15.3534 13.5625 17.5625V48.4375" stroke="white" stroke-linecap="round"/>
<path d="M32.9375 60.0625V59.5625H33.4375V60.0625H32.9375ZM15.8536 77.8536C15.6583 78.0488 15.3417 78.0488 15.1464 77.8536C14.9512 77.6583 14.9512 77.3417 15.1464 77.1464L15.8536 77.8536ZM32.9375 77.5H32.4375V60.0625H32.9375H33.4375V77.5H32.9375ZM32.9375 60.0625V60.5625H15.5V60.0625V59.5625H32.9375V60.0625ZM32.9375 60.0625L33.2911 60.4161L15.8536 77.8536L15.5 77.5L15.1464 77.1464L32.5839 59.7089L32.9375 60.0625Z" fill="white"/>
</svg>
