<svg width="100" height="100" viewBox="0 0 100 100" fill="none" xmlns="http://www.w3.org/2000/svg">
<path d="M87.5 75V29.1666L79.1667 37.5L50 41.6666L20.8333 37.5L12.5 29.1666V70.8333L33.3333 47.9166H41.6667L52.0833 60.4166H56.25L64.5833 54.1666H72.9167L83.3333 70.8333L87.5 75Z" fill="white"/>
<path d="M12.5 70.8333L34.2055 45.5102C35.724 43.7387 36.4832 42.8529 37.4511 42.8916C38.419 42.9302 39.1052 43.8737 40.4775 45.7607L52.6934 62.5576C53.3732 63.4923 53.7131 63.9596 54.1938 63.9813C54.6745 64.0029 55.055 63.568 55.8161 62.6983L65.3096 51.8485C66.89 50.0424 67.6802 49.1393 68.6657 49.2039C69.6512 49.2684 70.3168 50.2669 71.6481 52.2638L85.4167 72.9166" stroke="white"/>
<path d="M29.1667 39.5833V18.75M70.8334 39.5833V18.75" stroke="white" stroke-linecap="round"/>
<path d="M12.5 70.8333V29.1666M87.5 29.1666V70.8333" stroke="white" stroke-linecap="round"/>
<path d="M70.9158 18.7916C77.5909 20.2868 82.6472 22.4577 85.3383 24.9839C88.0294 27.5101 88.2127 30.2578 85.8613 32.8214C83.5098 35.385 78.7482 37.6288 72.2791 39.2214C65.81 40.8141 57.9762 41.6713 49.934 41.6666C41.8917 41.6619 34.067 40.7955 27.6148 39.1952C21.1626 37.595 16.4247 35.3457 14.1003 32.7793C11.776 30.213 11.9884 27.4655 14.7061 24.9425C17.4239 22.4194 22.503 20.2544 29.1939 18.7671" stroke="white" stroke-linecap="round"/>
<path d="M87.5 70.8334C87.5 74.1486 83.5491 77.328 76.5165 79.6722C69.4839 82.0164 59.9456 83.3334 50 83.3334C40.0544 83.3334 30.5161 82.0164 23.4835 79.6722C16.4509 77.328 12.5 74.1486 12.5 70.8334" stroke="white"/>
</svg>
